<svg fill="none" height="65" viewBox="0 0 252 65" width="252" xmlns="http://www.w3.org/2000/svg" xmlns:xlink="http://www.w3.org/1999/xlink"><linearGradient id="a" gradientUnits="userSpaceOnUse" x1="0" x2="60.6827" y1="0" y2="23.294"><stop offset=".16" stop-color="#3489c9"/><stop offset=".99" stop-color="#653695"/></linearGradient><clipPath id="b"><path d="m19 2h25v33h-25z"/></clipPath><path d="m87.634 26.436c1.32 0 2.478.258 3.474.774 1.008.516 1.782 1.254 2.322 2.214.552.948.828 2.052.828 3.312s-.276 2.364-.828 3.312c-.54.936-1.314 1.662-2.322 2.178-.996.516-2.154.774-3.474.774h-4.392v-12.564zm-.09 10.422c1.32 0 2.34-.36 3.06-1.08s1.08-1.734 1.08-3.042-.36-2.328-1.08-3.06c-.72-.744-1.74-1.116-3.06-1.116h-1.782v8.298zm17.87-3.06c0 .36-.024.684-.072.972h-7.2897c.06.72.312 1.284.756 1.692s.99.612 1.6377.612c.936 0 1.602-.402 1.998-1.206h2.718c-.288.96-.84 1.752-1.656 2.376-.816.612-1.818.918-3.006.918-.9597 0-1.8237-.21-2.5917-.63-.756-.432-1.35-1.038-1.782-1.818-.42-.78-.63-1.68-.63-2.7 0-1.032.21-1.938.63-2.718s1.008-1.38 1.764-1.8 1.626-.63 2.6097-.63c.948 0 1.794.204 2.538.612.756.408 1.338.99 1.746 1.746.42.744.63 1.602.63 2.574zm-2.61-.72c-.012-.648-.246-1.164-.702-1.548-.456-.396-1.014-.594-1.674-.594-.6237 0-1.1517.192-1.5837.576-.42.372-.678.894-.774 1.566zm8.608 3.6 2.52-7.65h2.682l-3.69 9.972h-3.06l-3.672-9.972h2.7zm10.433 2.484c-.816 0-1.548-.144-2.196-.432-.648-.3-1.164-.702-1.548-1.206-.372-.504-.576-1.062-.612-1.674h2.538c.048.384.234.702.558.954.336.252.75.378 1.242.378.48 0 .852-.096 1.116-.288.276-.192.414-.438.414-.738 0-.324-.168-.564-.504-.72-.324-.168-.846-.348-1.566-.54-.744-.18-1.356-.366-1.836-.558-.468-.192-.876-.486-1.224-.882-.336-.396-.504-.93-.504-1.602 0-.552.156-1.056.468-1.512.324-.456.78-.816 1.368-1.08.6-.264 1.302-.396 2.106-.396 1.188 0 2.136.3 2.844.9.708.588 1.098 1.386 1.17 2.394h-2.412c-.036-.396-.204-.708-.504-.936-.288-.24-.678-.36-1.17-.36-.456 0-.81.084-1.062.252-.24.168-.36.402-.36.702 0 .336.168.594.504.774.336.168.858.342 1.566.522.72.18 1.314.366 1.782.558s.87.492 1.206.9c.348.396.528.924.54 1.584 0 .576-.162 1.092-.486 1.548-.312.456-.768.816-1.368 1.08-.588.252-1.278.378-2.07.378zm16.415-12.726v12.564h-2.52v-5.346h-5.382v5.346h-2.52v-12.564h2.52v5.166h5.382v-5.166zm11.75 7.362c0 .36-.024.684-.072.972h-7.29c.06.72.312 1.284.756 1.692s.99.612 1.638.612c.936 0 1.602-.402 1.998-1.206h2.718c-.288.96-.84 1.752-1.656 2.376-.816.612-1.818.918-3.006.918-.96 0-1.824-.21-2.592-.63-.756-.432-1.35-1.038-1.782-1.818-.42-.78-.63-1.68-.63-2.7 0-1.032.21-1.938.63-2.718s1.008-1.38 1.764-1.8 1.626-.63 2.61-.63c.948 0 1.794.204 2.538.612.756.408 1.338.99 1.746 1.746.42.744.63 1.602.63 2.574zm-2.61-.72c-.012-.648-.246-1.164-.702-1.548-.456-.396-1.014-.594-1.674-.594-.624 0-1.152.192-1.584.576-.42.372-.678.894-.774 1.566zm6.969-7.398v13.32h-2.52v-13.32zm5.01 4.788c.324-.456.768-.834 1.332-1.134.576-.312 1.23-.468 1.962-.468.852 0 1.62.21 2.304.63.696.42 1.242 1.02 1.638 1.8.408.768.612 1.662.612 2.682s-.204 1.926-.612 2.718c-.396.78-.942 1.386-1.638 1.818-.684.432-1.452.648-2.304.648-.732 0-1.38-.15-1.944-.45-.552-.3-1.002-.678-1.35-1.134v6.174h-2.52v-14.724h2.52zm5.274 3.51c0-.6-.126-1.116-.378-1.548-.24-.444-.564-.78-.972-1.008-.396-.228-.828-.342-1.296-.342-.456 0-.888.12-1.296.36-.396.228-.72.564-.972 1.008-.24.444-.36.966-.36 1.566s.12 1.122.36 1.566c.252.444.576.786.972 1.026.408.228.84.342 1.296.342.468 0 .9-.12 1.296-.36.408-.24.732-.582.972-1.026.252-.444.378-.972.378-1.584zm8.797-7.542c1.32 0 2.478.258 3.474.774 1.008.516 1.782 1.254 2.322 2.214.552.948.828 2.052.828 3.312s-.276 2.364-.828 3.312c-.54.936-1.314 1.662-2.322 2.178-.996.516-2.154.774-3.474.774h-4.392v-12.564zm-.09 10.422c1.32 0 2.34-.36 3.06-1.08s1.08-1.734 1.08-3.042-.36-2.328-1.08-3.06c-.72-.744-1.74-1.116-3.06-1.116h-1.782v8.298zm17.871-3.06c0 .36-.024.684-.072.972h-7.29c.06.72.312 1.284.756 1.692s.99.612 1.638.612c.936 0 1.602-.402 1.998-1.206h2.718c-.288.96-.84 1.752-1.656 2.376-.816.612-1.818.918-3.006.918-.96 0-1.824-.21-2.592-.63-.756-.432-1.35-1.038-1.782-1.818-.42-.78-.63-1.68-.63-2.7 0-1.032.21-1.938.63-2.718s1.008-1.38 1.764-1.8 1.626-.63 2.61-.63c.948 0 1.794.204 2.538.612.756.408 1.338.99 1.746 1.746.42.744.63 1.602.63 2.574zm-2.61-.72c-.012-.648-.246-1.164-.702-1.548-.456-.396-1.014-.594-1.674-.594-.624 0-1.152.192-1.584.576-.42.372-.678.894-.774 1.566zm8.607 3.6 2.52-7.65h2.682l-3.69 9.972h-3.06l-3.672-9.972h2.7zm10.434 2.484c-.816 0-1.548-.144-2.196-.432-.648-.3-1.164-.702-1.548-1.206-.372-.504-.576-1.062-.612-1.674h2.538c.048.384.234.702.558.954.336.252.75.378 1.242.378.48 0 .852-.096 1.116-.288.276-.192.414-.438.414-.738 0-.324-.168-.564-.504-.72-.324-.168-.846-.348-1.566-.54-.744-.18-1.356-.366-1.836-.558-.468-.192-.876-.486-1.224-.882-.336-.396-.504-.93-.504-1.602 0-.552.156-1.056.468-1.512.324-.456.78-.816 1.368-1.08.6-.264 1.302-.396 2.106-.396 1.188 0 2.136.3 2.844.9.708.588 1.098 1.386 1.17 2.394h-2.412c-.036-.396-.204-.708-.504-.936-.288-.24-.678-.36-1.17-.36-.456 0-.81.084-1.062.252-.24.168-.36.402-.36.702 0 .336.168.594.504.774.336.168.858.342 1.566.522.72.18 1.314.366 1.782.558s.87.492 1.206.9c.348.396.528.924.54 1.584 0 .576-.162 1.092-.486 1.548-.312.456-.768.816-1.368 1.08-.588.252-1.278.378-2.07.378z" fill="#fff"/><path d="m32.5 0c17.9492 0 32.5 14.5508 32.5 32.5s-14.5508 32.5-32.5 32.5-32.5-14.5508-32.5-32.5 14.5508-32.5 32.5-32.5z" fill="url(#a)"/><path d="m27.32 20.288v26.712h-5.364v-2.232c-1.392 1.68-3.408 2.52-6.048 2.52-1.824 0-3.48-.408-4.968-1.224-1.464-.816-2.616-1.98-3.456-3.492s-1.26-3.264-1.26-5.256.42-3.744 1.26-5.256 1.992-2.676 3.456-3.492c1.488-.816 3.144-1.224 4.968-1.224 2.472 0 4.404.78 5.796 2.34v-9.396zm-10.44 22.392c1.416 0 2.592-.48 3.528-1.44.936-.984 1.404-2.292 1.404-3.924s-.468-2.928-1.404-3.888c-.936-.984-2.112-1.476-3.528-1.476-1.44 0-2.628.492-3.564 1.476-.936.96-1.404 2.256-1.404 3.888s.468 2.94 1.404 3.924c.936.96 2.124 1.44 3.564 1.44z" fill="#fff"/><path d="m56.32 21.288v26.712h-5.364v-2.232c-1.392 1.68-3.408 2.52-6.048 2.52-1.824 0-3.48-.408-4.968-1.224-1.464-.816-2.616-1.98-3.456-3.492s-1.26-3.264-1.26-5.256.42-3.744 1.26-5.256 1.992-2.676 3.456-3.492c1.488-.816 3.144-1.224 4.968-1.224 2.472 0 4.404.78 5.796 2.34v-9.396zm-10.44 22.392c1.416 0 2.592-.48 3.528-1.44.936-.984 1.404-2.292 1.404-3.924s-.468-2.928-1.404-3.888c-.936-.984-2.112-1.476-3.528-1.476-1.44 0-2.628.492-3.564 1.476-.936.96-1.404 2.256-1.404 3.888s.468 2.94 1.404 3.924c.936.96 2.124 1.44 3.564 1.44z" fill="#fff"/><g clip-path="url(#b)"><path d="m33.364 17.344c2.4 0 4.332.72 5.796 2.16 1.488 1.44 2.232 3.576 2.232 6.408v11.088h-5.616v-10.224c0-1.536-.336-2.676-1.008-3.42-.672-.768-1.644-1.152-2.916-1.152-1.416 0-2.544.444-3.384 1.332-.84.864-1.26 2.16-1.26 3.888v9.576h-5.616v-26.712h5.616v9.36c.744-.744 1.644-1.308 2.7-1.692 1.056-.408 2.208-.612 3.456-.612z" fill="#fff"/></g></svg>